# xmcd
#
# Track frame offsets: 
#        182
#        11990
#        22780
#        32622
#        44457
#        56872
#        65750
#        75462
#        81812
#        88212
#        93647
#        100892
#        112997
#        123427
#        128497
#        139522
#        149382
#        153662
#        162410
#        172540
#        187630
#        198150
#
# Disc length: 2764 seconds
#
# Revision: 1
# Processed by: cddbd v1.5.2PL0 Copyright (c) Steve Scherf et al.
# Submitted via: ExactAudioCopy v1.0b3
#
DISCID=1a0aca16
DTITLE=Merle Travis - Merle Travis 1944-49
DYEAR=1991
DGENRE=Country
TTITLE0=That's All
TTITLE1=You Tell Me Your Dream
TTITLE2=Old Rattler
TTITLE3=T For Texas
TTITLE4=The Cat Came Back
TTITLE5=Bye Bye Blues
TTITLE6=Lawdy What A Gal
TTITLE7=I'm Thinking Tonight Of My Blue Eyes
TTITLE8=Blue Railroad Train
TTITLE9=Roll On Mississippi
TTITLE10=GroundHog
TTITLE11=Petticoat Fever
TTITLE12=Rikki Tikki Tikki
TTITLE13=Sheik Of Araby
TTITLE14=Hominy Grits
TTITLE15=Nobody
TTITLE16=Travis Stomp
TTITLE17=No Vacancy
TTITLE18=The Cat Came Back
TTITLE19=i'm Gonna Move To The Outskirts Of Town
TTITLE20=John Henry
TTITLE21=Sweet Temptation
EXTD=
EXTT0=
EXTT1=
EXTT2=
EXTT3=
EXTT4=
EXTT5=
EXTT6=
EXTT7=
EXTT8=
EXTT9=
EXTT10=
EXTT11=
EXTT12=
EXTT13=
EXTT14=
EXTT15=
EXTT16=
EXTT17=
EXTT18=
EXTT19=
EXTT20=
EXTT21=
PLAYORDER=
